HIERARCHY
ROOT hip
{
	OFFSET 0.000000 0.000000 0.000000
	CHANNELS 6 Xposition Yposition Zposition Xrotation Zrotation Yrotation 
	JOINT abdomen
	{
		OFFSET 0.000000 3.422050 0.000000
		CHANNELS 3 Xrotation Zrotation Yrotation 
		JOINT chest
		{
			OFFSET 0.000000 8.486693 -0.6844110
			CHANNELS 3 Xrotation Zrotation Yrotation 
			JOINT neck
			{
				OFFSET 0.000000 10.26616 -0.2737640
				CHANNELS 3 Xrotation Zrotation Yrotation 
				JOINT head
				{
					OFFSET 0.000000 3.148285 0.000000
					CHANNELS 3 Xrotation Zrotation Yrotation 
					End Site
					{
						OFFSET 0.000000 3.148289 0.000000
					}
				}
			}
			JOINT lCollar
			{
				OFFSET 3.422053 6.707223 -0.8212930
				CHANNELS 3 Yrotation Zrotation Xrotation 
				JOINT lShldr
				{
					OFFSET 3.285171 0.000000 0.000000
					CHANNELS 3 Zrotation Yrotation Xrotation 
					JOINT lForeArm
					{
						OFFSET 10.12928 0.000000 0.000000
						CHANNELS 3 Yrotation Zrotation Xrotation 
						JOINT lHand
						{
							OFFSET 8.486692 0.000000 0.000000
							CHANNELS 3 Zrotation Yrotation Xrotation 
							End Site
							{
								OFFSET 4.106464 0.000000 0.000000
							}
						}
					}
				}
			}
			JOINT rCollar
			{
				OFFSET -3.558935 6.707223 -0.8212930
				CHANNELS 3 Yrotation Zrotation Xrotation 
				JOINT rShldr
				{
					OFFSET -3.148289 0.000000 0.000000
					CHANNELS 3 Zrotation Yrotation Xrotation 
					JOINT rForeArm
					{
						OFFSET -10.26616 0.000000 0.000000
						CHANNELS 3 Yrotation Zrotation Xrotation 
						JOINT rHand
						{
							OFFSET -8.349810 0.000000 0.000000
							CHANNELS 3 Zrotation Yrotation Xrotation 
							End Site
							{
								OFFSET -4.106464 0.000000 0.000000
							}
						}
					}
				}
			}
		}
	}
	JOINT lThigh
	{
		OFFSET 5.338403 -1.642589 1.368821
		CHANNELS 3 Xrotation Zrotation Yrotation 
		JOINT lShin
		{
			OFFSET -2.053232 -20.12167 0.000000
			CHANNELS 3 Xrotation Zrotation Yrotation 
			JOINT lFoot
			{
				OFFSET 0.000000 -19.30038 -1.231939
				CHANNELS 3 Xrotation Yrotation Zrotation 
				End Site
				{
					OFFSET 0.000000 -2.463878 4.653993
				}
			}
		}
	}
	JOINT rThigh
	{
		OFFSET -5.338403 -1.642589 1.368821
		CHANNELS 3 Xrotation Zrotation Yrotation 
		JOINT rShin
		{
			OFFSET 2.053232 -20.12167 0.000000
			CHANNELS 3 Xrotation Zrotation Yrotation 
			JOINT rFoot
			{
				OFFSET 0.000000 -19.30038 -1.231939
				CHANNELS 3 Xrotation Yrotation Zrotation 
				End Site
				{
					OFFSET 0.000000 -2.463878 4.653993
				}
			}
		}
	}
}
MOTION
Frames:	21
Frame Time:	0.03333333
-0.7333333 43.52852 0.000000 1.000000 0.000000 0.000000 1.000000 0.000000 0.000000 1.000000 0.000000 0.000000 1.000000 0.000000 0.000000 1.000000 0.000000 0.000000 0.000000 0.000000 1.000000 -74.00000 -77.33334 0.000000 -101.8667 14.00000 0.000000 0.000000 0.000000 -90.00000 0.000000 0.000000 1.000000 74.00000 77.33334 0.000000 101.8667 -14.00000 0.000000 0.000000 0.000000 -90.00000 -11.00000 1.333333 0.8666667 25.00000 0.000000 0.000000 -14.00000 0.000000 0.000000 -11.00000 -1.333333 -0.8666667 25.00000 0.000000 0.000000 -14.00000 0.000000 0.000000 
-1.466667 43.52851 0.000000 1.000000 0.000000 0.000000 1.000000 0.000000 0.000000 1.000000 0.000000 0.000000 1.000000 0.000000 0.000000 1.000000 0.000000 0.000000 0.000000 0.000000 1.000000 -74.00000 -79.66666 0.000000 -99.73333 14.00000 0.000000 0.000000 0.000000 -90.00000 0.000000 0.000000 1.000000 74.00000 79.66666 0.000000 99.73333 -14.00000 0.000000 0.000000 0.000000 -90.00000 -11.00000 2.666667 1.733333 25.00000 0.000000 0.000000 -14.00000 0.000000 0.000000 -11.00000 -2.666667 -1.733333 25.00000 0.000000 0.000000 -14.00000 0.000000 0.000000 
-2.200000 43.52851 0.000000 1.000000 0.000000 0.000000 1.000000 0.000000 0.000000 1.000000 0.000000 0.000000 1.000000 0.000000 0.000000 1.000000 0.000000 0.000000 0.000000 0.000000 1.000000 -74.00000 -82.00000 0.000000 -97.60000 14.00000 0.000000 0.000000 0.000000 -90.00000 0.000000 0.000000 1.000000 74.00000 82.00000 0.000000 97.60000 -14.00000 0.000000 0.000000 0.000000 -90.00000 -11.00000 4.000000 2.600000 25.00000 0.000000 0.000000 -14.00000 0.000000 0.000000 -11.00000 -4.000000 -2.600000 25.00000 0.000000 0.000000 -14.00000 0.000000 0.000000 
-2.933333 43.52851 0.000000 1.000000 0.000000 0.000000 1.000000 0.000000 0.000000 1.000000 0.000000 0.000000 1.000000 0.000000 0.000000 1.000000 0.000000 0.000000 0.000000 0.000000 1.000000 -74.00000 -84.33334 0.000000 -95.46667 14.00000 0.000000 0.000000 0.000000 -90.00000 0.000000 0.000000 1.000000 74.00000 84.33334 0.000000 95.46667 -14.00000 0.000000 0.000000 0.000000 -90.00000 -11.00000 5.333333 3.466667 25.00000 0.000000 0.000000 -14.00000 0.000000 0.000000 -11.00000 -5.333333 -3.466667 25.00000 0.000000 0.000000 -14.00000 0.000000 0.000000 
-3.666667 43.52851 0.000000 1.000000 0.000000 0.000000 1.000000 0.000000 0.000000 1.000000 0.000000 0.000000 1.000000 0.000000 0.000000 1.000000 0.000000 0.000000 0.000000 0.000000 1.000000 -74.00000 -86.66666 0.000000 -93.33334 14.00000 0.000000 0.000000 0.000000 -90.00000 0.000000 0.000000 1.000000 74.00000 86.66666 0.000000 93.33334 -14.00000 0.000000 0.000000 0.000000 -90.00000 -11.00000 6.666667 4.333333 25.00000 0.000000 0.000000 -14.00000 0.000000 0.000000 -11.00000 -6.666667 -4.333333 25.00000 0.000000 0.000000 -14.00000 0.000000 0.000000 
-4.400000 43.52851 0.000000 1.000000 0.000000 0.000000 1.000000 0.000000 0.000000 1.000000 0.000000 0.000000 1.000000 0.000000 0.000000 1.000000 0.000000 0.000000 0.000000 0.000000 1.000000 -74.00000 -89.00000 0.000000 -91.20000 14.00000 0.000000 0.000000 0.000000 -90.00000 0.000000 0.000000 1.000000 74.00000 89.00000 0.000000 91.20000 -14.00000 0.000000 0.000000 0.000000 -90.00000 -11.00000 8.000000 5.200000 25.00000 0.000000 0.000000 -14.00000 0.000000 0.000000 -11.00000 -8.000000 -5.200000 25.00000 0.000000 0.000000 -14.00000 0.000000 0.000000 
-5.133333 43.52851 0.000000 1.000000 0.000000 0.000000 1.000000 0.000000 0.000000 1.000000 0.000000 0.000000 1.000000 0.000000 0.000000 1.000000 0.000000 0.000000 0.000000 0.000000 1.000000 -74.00000 -91.33334 0.000000 -89.06667 14.00000 0.000000 0.000000 0.000000 -90.00000 0.000000 0.000000 1.000000 74.00000 91.33334 0.000000 89.06667 -14.00000 0.000000 0.000000 0.000000 -90.00000 -11.00000 9.333333 6.066667 25.00000 0.000000 0.000000 -14.00000 0.000000 0.000000 -11.00000 -9.333333 -6.066667 25.00000 0.000000 0.000000 -14.00000 0.000000 0.000000 
-5.866667 43.52851 0.000000 1.000000 0.000000 0.000000 1.000000 0.000000 0.000000 1.000000 0.000000 0.000000 1.000000 0.000000 0.000000 1.000000 0.000000 0.000000 0.000000 0.000000 1.000000 -74.00000 -93.66666 0.000000 -86.93333 14.00000 0.000000 0.000000 0.000000 -90.00000 0.000000 0.000000 1.000000 74.00000 93.66666 0.000000 86.93333 -14.00000 0.000000 0.000000 0.000000 -90.00000 -11.00000 10.66667 6.933333 25.00000 0.000000 0.000000 -14.00000 0.000000 0.000000 -11.00000 -10.66667 -6.933333 25.00000 0.000000 0.000000 -14.00000 0.000000 0.000000 
-6.600000 43.52851 0.000000 1.000000 0.000000 0.000000 1.000000 0.000000 0.000000 1.000000 0.000000 0.000000 1.000000 0.000000 0.000000 1.000000 0.000000 0.000000 0.000000 0.000000 1.000000 -74.00000 -96.00000 0.000000 -84.80000 14.00000 0.000000 0.000000 0.000000 -90.00000 0.000000 0.000000 1.000000 74.00000 96.00000 0.000000 84.80000 -14.00000 0.000000 0.000000 0.000000 -90.00000 -11.00000 12.00000 7.800000 25.00000 0.000000 0.000000 -14.00000 0.000000 0.000000 -11.00000 -12.00000 -7.800000 25.00000 0.000000 0.000000 -14.00000 0.000000 0.000000 
-7.333333 43.52851 0.000000 1.000000 0.000000 0.000000 1.000000 0.000000 0.000000 1.000000 0.000000 0.000000 1.000000 0.000000 0.000000 1.000000 0.000000 0.000000 0.000000 0.000000 1.000000 -74.00000 -98.33334 0.000000 -82.66666 14.00000 0.000000 0.000000 0.000000 -90.00000 0.000000 0.000000 1.000000 74.00000 98.33334 0.000000 82.66666 -14.00000 0.000000 0.000000 0.000000 -90.00000 -11.00000 13.33333 8.666667 25.00000 0.000000 0.000000 -14.00000 0.000000 0.000000 -11.00000 -13.33333 -8.666667 25.00000 0.000000 0.000000 -14.00000 0.000000 0.000000 
-8.066667 43.52850 0.000000 1.000000 0.000000 0.000000 1.000000 0.000000 0.000000 1.000000 0.000000 0.000000 1.000000 0.000000 0.000000 1.000000 0.000000 0.000000 0.000000 0.000000 1.000000 -74.00000 -100.6667 0.000000 -80.53333 14.00000 0.000000 0.000000 0.000000 -90.00000 0.000000 0.000000 1.000000 74.00000 100.6667 0.000000 80.53333 -14.00000 0.000000 0.000000 0.000000 -90.00000 -11.00000 14.66667 9.533334 25.00000 0.000000 0.000000 -14.00000 0.000000 0.000000 -11.00000 -14.66667 -9.533334 25.00000 0.000000 0.000000 -14.00000 0.000000 0.000000 
-8.800000 43.52850 0.000000 1.000000 0.000000 0.000000 1.000000 0.000000 0.000000 1.000000 0.000000 0.000000 1.000000 0.000000 0.000000 1.000000 0.000000 0.000000 0.000000 0.000000 1.000000 -74.00000 -103.0000 0.000000 -78.40000 14.00000 0.000000 0.000000 0.000000 -90.00000 0.000000 0.000000 1.000000 74.00000 103.0000 0.000000 78.40000 -14.00000 0.000000 0.000000 0.000000 -90.00000 -11.00000 16.00000 10.40000 25.00000 0.000000 0.000000 -14.00000 0.000000 0.000000 -11.00000 -16.00000 -10.40000 25.00000 0.000000 0.000000 -14.00000 0.000000 0.000000 
-9.533334 43.52850 0.000000 1.000000 0.000000 0.000000 1.000000 0.000000 0.000000 1.000000 0.000000 0.000000 1.000000 0.000000 0.000000 1.000000 0.000000 0.000000 0.000000 0.000000 1.000000 -74.00000 -105.3333 0.000000 -76.26667 14.00000 0.000000 0.000000 0.000000 -90.00000 0.000000 0.000000 1.000000 74.00000 105.3333 0.000000 76.26667 -14.00000 0.000000 0.000000 0.000000 -90.00000 -11.00000 17.33333 11.26667 25.00000 0.000000 0.000000 -14.00000 0.000000 0.000000 -11.00000 -17.33333 -11.26667 25.00000 0.000000 0.000000 -14.00000 0.000000 0.000000 
-10.26667 43.52850 0.000000 1.000000 0.000000 0.000000 1.000000 0.000000 0.000000 1.000000 0.000000 0.000000 1.000000 0.000000 0.000000 1.000000 0.000000 0.000000 0.000000 0.000000 1.000000 -74.00000 -107.6667 0.000000 -74.13333 14.00000 0.000000 0.000000 0.000000 -90.00000 0.000000 0.000000 1.000000 74.00000 107.6667 0.000000 74.13333 -14.00000 0.000000 0.000000 0.000000 -90.00000 -11.00000 18.66667 12.13333 25.00000 0.000000 0.000000 -14.00000 0.000000 0.000000 -11.00000 -18.66667 -12.13333 25.00000 0.000000 0.000000 -14.00000 0.000000 0.000000 
-11.00000 43.52850 0.000000 1.000000 0.000000 0.000000 1.000000 0.000000 0.000000 1.000000 0.000000 0.000000 1.000000 0.000000 0.000000 1.000000 0.000000 0.000000 0.000000 0.000000 1.000000 -74.00000 -110.0000 0.000000 -72.00000 14.00000 0.000000 0.000000 0.000000 -90.00000 0.000000 0.000000 1.000000 74.00000 110.0000 0.000000 72.00000 -14.00000 0.000000 0.000000 0.000000 -90.00000 -11.00000 20.00000 13.00000 25.00000 0.000000 0.000000 -14.00000 0.000000 0.000000 -11.00000 -20.00000 -13.00000 25.00000 0.000000 0.000000 -14.00000 0.000000 0.000000 
-11.93333 43.52850 0.000000 1.000000 0.000000 0.000000 1.000000 0.000000 0.000000 1.000000 0.000000 0.000000 1.000000 0.000000 0.000000 1.000000 0.000000 0.000000 0.000000 0.000000 1.000000 -74.00000 -107.6667 0.000000 -74.13333 14.00000 0.000000 0.000000 0.000000 -90.00000 0.000000 0.000000 1.000000 74.00000 107.6667 0.000000 74.13333 -14.00000 0.000000 0.000000 0.000000 -90.00000 -11.00000 18.66667 12.13333 25.00000 0.000000 0.000000 -14.00000 0.000000 0.000000 -11.00000 -18.66667 -12.13333 25.00000 0.000000 0.000000 -14.00000 0.000000 0.000000 
-12.86667 43.52850 0.000000 1.000000 0.000000 0.000000 1.000000 0.000000 0.000000 1.000000 0.000000 0.000000 1.000000 0.000000 0.000000 1.000000 0.000000 0.000000 0.000000 0.000000 1.000000 -74.00000 -105.3333 0.000000 -76.26667 14.00000 0.000000 0.000000 0.000000 -90.00000 0.000000 0.000000 1.000000 74.00000 105.3333 0.000000 76.26667 -14.00000 0.000000 0.000000 0.000000 -90.00000 -11.00000 17.33333 11.26667 25.00000 0.000000 0.000000 -14.00000 0.000000 0.000000 -11.00000 -17.33333 -11.26667 25.00000 0.000000 0.000000 -14.00000 0.000000 0.000000 
-13.80000 43.52850 0.000000 1.000000 0.000000 0.000000 1.000000 0.000000 0.000000 1.000000 0.000000 0.000000 1.000000 0.000000 0.000000 1.000000 0.000000 0.000000 0.000000 0.000000 1.000000 -74.00000 -103.0000 0.000000 -78.40000 14.00000 0.000000 0.000000 0.000000 -90.00000 0.000000 0.000000 1.000000 74.00000 103.0000 0.000000 78.40000 -14.00000 0.000000 0.000000 0.000000 -90.00000 -11.00000 16.00000 10.40000 25.00000 0.000000 0.000000 -14.00000 0.000000 0.000000 -11.00000 -16.00000 -10.40000 25.00000 0.000000 0.000000 -14.00000 0.000000 0.000000 
-14.73333 43.52850 0.000000 1.000000 0.000000 0.000000 1.000000 0.000000 0.000000 1.000000 0.000000 0.000000 1.000000 0.000000 0.000000 1.000000 0.000000 0.000000 0.000000 0.000000 1.000000 -74.00000 -100.6667 0.000000 -80.53333 14.00000 0.000000 0.000000 0.000000 -90.00000 0.000000 0.000000 1.000000 74.00000 100.6667 0.000000 80.53333 -14.00000 0.000000 0.000000 0.000000 -90.00000 -11.00000 14.66667 9.533334 25.00000 0.000000 0.000000 -14.00000 0.000000 0.000000 -11.00000 -14.66667 -9.533334 25.00000 0.000000 0.000000 -14.00000 0.000000 0.000000 
-15.66667 43.52850 0.000000 1.000000 0.000000 0.000000 1.000000 0.000000 0.000000 1.000000 0.000000 0.000000 1.000000 0.000000 0.000000 1.000000 0.000000 0.000000 0.000000 0.000000 1.000000 -74.00000 -98.33334 0.000000 -82.66666 14.00000 0.000000 0.000000 0.000000 -90.00000 0.000000 0.000000 1.000000 74.00000 98.33334 0.000000 82.66666 -14.00000 0.000000 0.000000 0.000000 -90.00000 -11.00000 13.33333 8.666667 25.00000 0.000000 0.000000 -14.00000 0.000000 0.000000 -11.00000 -13.33333 -8.666667 25.00000 0.000000 0.000000 -14.00000 0.000000 0.000000 
-16.60000 43.52850 0.000000 1.000000 0.000000 0.000000 1.000000 0.000000 0.000000 1.000000 0.000000 0.000000 1.000000 0.000000 0.000000 1.000000 0.000000 0.000000 0.000000 0.000000 1.000000 -74.00000 -96.00000 0.000000 -84.80000 14.00000 0.000000 0.000000 0.000000 -90.00000 0.000000 0.000000 1.000000 74.00000 96.00000 0.000000 84.80000 -14.00000 0.000000 0.000000 0.000000 -90.00000 -11.00000 12.00000 7.800000 25.00000 0.000000 0.000000 -14.00000 0.000000 0.000000 -11.00000 -12.00000 -7.800000 25.00000 0.000000 0.000000 -14.00000 0.000000 0.000000 
